<?xml version="1.0" encoding="UTF-8"?>
<svg id="Points" xmlns="http://www.w3.org/2000/svg" viewBox="0 0 132 132">
  <defs>
    <style>
      .cls-1 {
        fill: #1ea169;
      }
    </style>
  </defs>
  <path class="cls-1" d="M74.96,73.44h-21.79c-2.72,0-4.92-2.2-4.92-4.92s2.2-4.92,4.92-4.92h21.79c2.72,0,4.92,2.2,4.92,4.92s-2.2,4.92-4.92,4.92Z"/>
  <path class="cls-1" d="M74.96,86.51h-21.79c-2.72,0-4.92-2.2-4.92-4.92s2.2-4.92,4.92-4.92h21.79c2.72,0,4.92,2.2,4.92,4.92s-2.2,4.92-4.92,4.92Z"/>
  <path class="cls-1" d="M64.67,107.88c-22.34,0-40.52-18.18-40.52-40.52s18.18-40.52,40.52-40.52c2.72,0,4.92,2.2,4.92,4.92s-2.2,4.92-4.92,4.92c-16.91,0-30.67,13.76-30.67,30.67s13.76,30.67,30.67,30.67,30.67-13.76,30.67-30.67c0-2.72,2.2-4.92,4.92-4.92s4.92,2.2,4.92,4.92c0,22.34-18.18,40.52-40.52,40.52Z"/>
  <g>
    <path class="cls-1" d="M75.08,59.09h-23.01c-2.72,0-4.92-2.2-4.92-4.92s2.2-4.92,4.92-4.92h20.97l21.33-21.33c1.92-1.92,5.04-1.92,6.96,0,1.92,1.92,1.92,5.04,0,6.96l-22.77,22.77c-.92.92-2.18,1.44-3.48,1.44Z"/>
    <path class="cls-1" d="M102.91,43.22c-1.28,0-2.54-.5-3.48-1.44l-11.95-11.95c-1.41-1.41-1.83-3.53-1.07-5.37.76-1.84,2.56-3.04,4.55-3.04h11.95c2.72,0,4.92,2.2,4.92,4.92v11.95c0,1.99-1.2,3.79-3.04,4.55-.61.25-1.25.38-1.88.38Z"/>
  </g>
</svg>