<?xml version="1.0" encoding="UTF-8"?>
<svg id="Layer_1" data-name="Layer 1" xmlns="http://www.w3.org/2000/svg" viewBox="0 0 414.72 132.66">
  <defs>
    <style>
      .cls-1 {
        fill: #1ea169;
      }

      .cls-2 {
        fill: #020516;
      }
    </style>
  </defs>
  <g>
    <path class="cls-1" d="M84.35,71.91h-17.19c-2.14,0-3.88-1.74-3.88-3.88s1.74-3.88,3.88-3.88h17.19c2.14,0,3.88,1.74,3.88,3.88s-1.74,3.88-3.88,3.88Z"/>
    <path class="cls-1" d="M84.35,82.22h-17.19c-2.14,0-3.88-1.74-3.88-3.88s1.74-3.88,3.88-3.88h17.19c2.14,0,3.88,1.74,3.88,3.88s-1.74,3.88-3.88,3.88Z"/>
    <path class="cls-1" d="M76.23,99.07c-17.62,0-31.95-14.33-31.95-31.95s14.33-31.95,31.95-31.95c2.14,0,3.88,1.74,3.88,3.88s-1.74,3.88-3.88,3.88c-13.34,0-24.19,10.85-24.19,24.19s10.85,24.19,24.19,24.19,24.19-10.85,24.19-24.19c0-2.14,1.74-3.88,3.88-3.88s3.88,1.74,3.88,3.88c0,17.62-14.33,31.95-31.95,31.95Z"/>
    <g>
      <path class="cls-1" d="M84.44,60.6h-18.14c-2.14,0-3.88-1.74-3.88-3.88s1.74-3.88,3.88-3.88h16.53l16.82-16.82c1.52-1.52,3.97-1.52,5.49,0,1.52,1.52,1.52,3.97,0,5.49l-17.95,17.95c-.73.73-1.72,1.14-2.75,1.14Z"/>
      <path class="cls-1" d="M106.38,48.09c-1.01,0-2-.39-2.75-1.14l-9.42-9.42c-1.11-1.11-1.44-2.78-.84-4.23.6-1.45,2.02-2.4,3.59-2.4h9.42c2.14,0,3.88,1.74,3.88,3.88v9.42c0,1.57-.95,2.99-2.4,3.59-.48.2-.98.3-1.48.3Z"/>
    </g>
  </g>
  <g>
    <path class="cls-2" d="M133.85,44.07h15.17c8.2,0,16.09,3.27,16.09,12.52,0,6.29-3.88,10.42-9.99,11.78l11.65,19.36h-9.37l-10.11-18.5h-5.67v18.5h-7.77v-43.66ZM147.97,62.88c4.38,0,9.37-1.05,9.37-6.35,0-4.75-4.69-5.92-8.69-5.92h-7.03v12.27h6.35Z"/>
    <path class="cls-2" d="M200.07,75.27h-22.51c.31,4.19,4.13,7.28,8.45,7.28,3.7,0,6.17-1.48,7.83-3.82l4.93,3.95c-2.9,3.95-7.09,5.92-12.7,5.92-9.13,0-15.91-5.86-15.91-15.48s6.72-15.85,15.66-15.85c8.26,0,14.31,5.36,14.31,16.03,0,.68,0,1.29-.06,1.97ZM192.73,69.97c0-3.82-2.16-7.15-6.97-7.15-4.38,0-7.89,3.02-8.2,7.15h15.17Z"/>
    <path class="cls-2" d="M207.65,58.13h7.03v4.75h.12c1.29-2.96,4.81-5.61,9.19-5.61,7.71,0,10.91,5.92,10.91,11.96v18.5h-7.4v-16.4c0-3.51-.8-7.89-5.55-7.89s-6.91,4.07-6.91,8.02v16.28h-7.4v-29.6Z"/>
    <path class="cls-2" d="M239.71,58.13h8.02l6.17,21.21h.12l6.35-21.21h7.89l6.41,21.21h.12l6.29-21.21h7.71l-10.24,29.6h-7.52l-6.72-20.72h-.12l-6.66,20.72h-7.52l-10.3-29.6Z"/>
    <path class="cls-2" d="M297.6,43.64c2.71,0,4.81,1.91,4.81,4.44s-2.1,4.44-4.81,4.44-4.69-2.1-4.69-4.44,1.97-4.44,4.69-4.44ZM293.96,58.13h7.4v29.6h-7.4v-29.6Z"/>
    <path class="cls-2" d="M308.39,81.19l15.97-17.14h-15.23v-5.92h24.05v6.54l-16.03,17.02h16.77v6.04h-25.53v-6.54Z"/>
    <path class="cls-2" d="M369,75.27h-22.51c.31,4.19,4.13,7.28,8.45,7.28,3.7,0,6.17-1.48,7.83-3.82l4.93,3.95c-2.9,3.95-7.09,5.92-12.7,5.92-9.12,0-15.91-5.86-15.91-15.48s6.72-15.85,15.66-15.85c8.26,0,14.31,5.36,14.31,16.03,0,.68,0,1.29-.06,1.97ZM361.66,69.97c0-3.82-2.16-7.15-6.97-7.15-4.38,0-7.89,3.02-8.2,7.15h15.17Z"/>
  </g>
</svg>